<svg id="Layer_1" enable-background="new 0 0 480.015 480.015" height="512" viewBox="0 0 480.015 480.015" width="512" xmlns="http://www.w3.org/2000/svg"><path d="m420 66.007v348c0 17.67-14.33 32-32 32h-348c-17.67 0-32-14.33-32-32v-348c0-17.67 14.33-32 32-32h348c17.67 0 32 14.331 32 32z" fill="#b9dcff"/><path d="m455.08 340.287c-41.195 54.183-31.58 41.541-46.98 61.78-9.6 12.63-28.6 12.63-38.2 0l-46.98-61.78c-25.122-33.017-22.007-79.573 7.38-108.96 24.25-24.25 59.77-30.36 89.7-18.33 50.534 20.304 68.359 83.54 35.08 127.29z" fill="#b9dcff"/><path d="m435.119 256.437c-40.033 6.107-73.937 35.054-82.73 77.033-2.931 13.994-20.813 18.198-29.469 6.818-25.12-33.014-22.009-79.571 7.38-108.96 32.267-32.267 82.08-31.236 113.469-3.789 10.686 9.343 5.382 26.757-8.65 28.898z" fill="#d1e7ff"/><circle cx="389" cy="290.007" fill="#d1e7ff" r="39.004"/><path d="m415.52 261.418c-25.13 9.07-46.05 27.69-57.03 52.89-12.23-15.31-11.25-37.7 2.93-51.88 14.88-14.88 38.81-15.22 54.1-1.01z" fill="#e8f3ff"/><path d="m420 66.007c0 15.464-12.536 28-28 28h-174c-82.843 0-150 67.157-150 150v174c0 15.464-12.536 28-28 28-17.673 0-32-14.327-32-32v-348c0-17.673 14.327-32 32-32h348c17.673 0 32 14.327 32 32z" fill="#d1e7ff"/><path d="m277.34 34.007v98.36c0 12.07-12.85 19.79-23.51 14.13l-31.75-16.87c-4.7-2.49-10.32-2.49-15.02 0l-31.75 16.87c-10.66 5.66-23.51-2.06-23.51-14.13v-98.36z" fill="#e8f3ff"/><path d="m277.34 94.007v38.36c0 12.07-12.85 19.79-23.51 14.13l-31.75-16.87c-4.7-2.49-10.32-2.49-15.02 0l-31.75 16.87c-10.66 5.66-23.51-2.06-23.51-14.13v-23c19.96-9.83 42.44-15.36 66.2-15.36z" fill="#d1e7ff"/><path d="m380.066 446.007c0 4.418-3.582 8-8 8h-332.066c-22.056 0-40-17.944-40-40v-348c0-22.056 17.944-40 40-40h348c22.056 0 40 17.944 40 40v108.941c0 4.418-3.582 8-8 8s-8-3.582-8-8v-108.941c0-13.233-10.766-24-24-24h-228.199v90.362c0 6.039 6.424 9.894 11.753 7.065l31.757-16.871c7.05-3.744 15.469-3.746 22.52.001l31.756 16.869c5.335 2.834 11.753-1.032 11.753-7.064v-60.156c0-4.418 3.582-8 8-8s8 3.582 8 8v60.157c0 18.122-19.292 29.679-35.26 21.194l-31.757-16.869c-2.351-1.25-5.157-1.249-7.506-.001l-31.758 16.871c-16.004 8.502-35.259-3.113-35.259-21.195v-90.363h-103.8c-13.234 0-24 10.767-24 24v348c0 13.233 10.766 24 24 24h332.066c4.419 0 8 3.583 8 8zm81.384-100.875-46.979 61.776c-12.811 16.844-38.123 16.854-50.942 0l-46.979-61.776c-27.577-36.262-24.064-87.303 8.089-119.458 35.572-35.572 93.146-35.575 128.722 0 32.214 32.215 35.615 83.263 8.089 119.458zm-72.45-130.117c-62.111 0-96.985 71.423-59.715 120.432l46.979 61.776c6.406 8.423 19.063 8.427 25.472 0l46.979-61.776c37.273-49.013 2.402-120.432-59.715-120.432zm33.234 41.758c29.552 29.552 8.437 80.212-33.234 80.212-41.668 0-62.791-50.654-33.234-80.212 18.325-18.324 48.143-18.324 66.468 0zm-33.234 2.249c-27.462 0-41.434 33.392-21.92 52.905 12.087 12.088 31.754 12.088 43.841 0 19.49-19.491 5.566-52.905-21.921-52.905zm-243.166 77.423c0-4.418-3.582-8-8-8h-56.792c-4.418 0-8 3.582-8 8s3.582 8 8 8h56.792c4.418 0 8-3.582 8-8zm-4.225 52.704c4.293-2.298 5.437-7.194 3.444-10.917-1.983-3.704-6.684-5.496-10.995-3.188-3.896 2.085-5.363 6.933-3.278 10.828 2.086 3.894 6.933 5.364 10.829 3.277zm-60.567-15.053c-4.418 0-8 3.582-8 8s3.582 8 8 8h25.708c4.418 0 8-3.582 8-8s-3.582-8-8-8z" fill="#2e58ff"/></svg>